<?xml version="1.0" encoding="UTF-8"?>
<!DOCTYPE svg PUBLIC "-//W3C//DTD SVG 1.1//EN" "http://www.w3.org/Graphics/SVG/1.1/DTD/svg11.dtd">
<svg xmlns="http://www.w3.org/2000/svg" version="1.1" width="1024px" height="1024px"  viewBox="0 0 1024 1024"  style="shape-rendering:geometricPrecision; text-rendering:geometricPrecision; image-rendering:optimizeQuality; fill-rule:evenodd; clip-rule:evenodd" xmlns:xlink="http://www.w3.org/1999/xlink">
<g><path style="opacity:1" fill="#000000" d="M 467.5,47.5 C 532.989,46.1318 598.323,48.6318 663.5,55C 713.22,59.7635 761.22,71.4302 807.5,90C 879.177,121.679 927.01,174.845 951,249.5C 966.255,298.028 975.588,347.694 979,398.5C 984.57,474.809 984.903,551.143 980,627.5C 977.044,680.57 968.044,732.57 953,783.5C 925.986,869.847 869.819,928.014 784.5,958C 730.841,975.221 675.841,985.221 619.5,988C 527.309,994.21 435.309,992.21 343.5,982C 294.421,976.315 247.421,963.315 202.5,943C 137.804,909.962 94.3038,858.795 72,789.5C 58.8538,748.103 50.1871,705.769 46,662.5C 37.3333,567.166 37.3333,471.833 46,376.5C 50.2264,328.135 60.5597,281.135 77,235.5C 103.019,167.814 149.186,119.314 215.5,90C 267.886,69.3214 322.219,56.9881 378.5,53C 408.286,50.5292 437.953,48.6959 467.5,47.5 Z"/></g>
<g><path style="opacity:1" fill="#1f252b" d="M 455.5,63.5 C 492.835,63.3333 530.168,63.5 567.5,64C 618.676,65.1842 669.343,70.8509 719.5,81C 761.572,89.7943 800.572,105.794 836.5,129C 880.015,161.139 910.515,202.973 928,254.5C 942.375,298.746 951.375,344.079 955,390.5C 960.185,462.452 960.851,534.452 957,606.5C 954.4,656.102 946.4,704.769 933,752.5C 908.918,837.242 855.752,895.075 773.5,926C 722.906,943.1 670.906,953.1 617.5,956C 545.837,960.618 474.17,960.618 402.5,956C 354.163,952.722 306.83,944.055 260.5,930C 208.086,913.574 165.252,883.74 132,840.5C 106.797,803.408 89.7971,762.741 81,718.5C 70.8349,667.689 65.1682,616.356 64,564.5C 62.408,506.424 63.7413,448.424 68,390.5C 71.6251,344.079 80.6251,298.746 95,254.5C 119.417,181.417 167.251,130.25 238.5,101C 287.55,82.7228 338.216,71.7228 390.5,68C 412.303,66.1983 433.97,64.6983 455.5,63.5 Z"/></g>
<g><path style="opacity:1" fill="#f97c00" d="M 392.5,434.5 C 392.5,435.167 392.5,435.833 392.5,436.5C 370.873,471.391 365.707,508.725 377,548.5C 380.315,560.789 385.482,572.122 392.5,582.5C 392.5,583.167 392.5,583.833 392.5,584.5C 354.164,637.976 302.497,658.142 237.5,645C 181.244,627.079 147.078,589.246 135,531.5C 128.447,461.424 156.614,410.924 219.5,380C 279.903,358.545 332.736,370.378 378,415.5C 383.08,421.734 387.914,428.067 392.5,434.5 Z"/></g>
<g><path style="opacity:1" fill="#00d951" d="M 630.5,434.5 C 630.5,435.167 630.5,435.833 630.5,436.5C 608.971,471.371 603.804,508.704 615,548.5C 618.31,560.779 623.476,572.112 630.5,582.5C 630.5,583.167 630.5,583.833 630.5,584.5C 592.055,637.717 540.388,657.884 475.5,645C 440.549,634.553 412.882,614.386 392.5,584.5C 392.5,583.833 392.5,583.167 392.5,582.5C 413.295,548.295 418.795,511.628 409,472.5C 405.334,459.512 399.834,447.512 392.5,436.5C 392.5,435.833 392.5,435.167 392.5,434.5C 429.534,382.084 479.867,361.584 543.5,373C 580.487,382.529 609.487,403.029 630.5,434.5 Z"/></g>
<g><path style="opacity:1" fill="#3ebaf2" d="M 630.5,584.5 C 630.5,583.833 630.5,583.167 630.5,582.5C 651.596,547.169 656.763,509.503 646,469.5C 642.408,457.654 637.241,446.654 630.5,436.5C 630.5,435.833 630.5,435.167 630.5,434.5C 668.818,380.882 720.485,360.715 785.5,374C 841.293,391.793 875.459,429.293 888,486.5C 894.863,553.95 868.696,603.783 809.5,636C 747.939,661.382 693.439,650.882 646,604.5C 640.587,597.933 635.421,591.267 630.5,584.5 Z"/></g>
<g><path style="opacity:1" fill="#f9f9f8" d="M 392.5,436.5 C 399.834,447.512 405.334,459.512 409,472.5C 418.795,511.628 413.295,548.295 392.5,582.5C 385.482,572.122 380.315,560.789 377,548.5C 365.707,508.725 370.873,471.391 392.5,436.5 Z"/></g>
<g><path style="opacity:1" fill="#f8f9f9" d="M 630.5,436.5 C 637.241,446.654 642.408,457.654 646,469.5C 656.763,509.503 651.596,547.169 630.5,582.5C 623.476,572.112 618.31,560.779 615,548.5C 603.804,508.704 608.971,471.371 630.5,436.5 Z"/></g>
</svg>
